<svg xmlns="http://www.w3.org/2000/svg" viewBox="0 0 400 300" data-imageid="clean-inbox-flatline" imageName="Clean inbox" class="illustrations_image" style="width: 188px;"><g id="_297_clean_inbox_flatline" data-name="#297_clean_inbox_flatline"><path d="M261,88.14H158.22v80.42H287.93V113C287.93,99.29,275.87,88.14,261,88.14Z" fill="#2563eb" class="target-color"/><path d="M287.93,169H158.22a.46.46,0,0,1-.45-.46V88.14a.45.45,0,0,1,.45-.45H261c15.1,0,27.39,11.37,27.39,25.34v55.53A.47.47,0,0,1,287.93,169Zm-129.25-.92H287.47V113c0-13.47-11.87-24.43-26.47-24.43H158.68Z" fill="#231f20"/><path d="M185.15,114v54.53H131.29V114a25.71,25.71,0,0,1,6.82-17.51,25.83,25.83,0,0,1,19.07-8.38h2.3a25.91,25.91,0,0,1,24,16.65,23.23,23.23,0,0,1,.94,3,.07.07,0,0,1,0,0,1.29,1.29,0,0,1,.07.31A25.37,25.37,0,0,1,185.15,114Z" fill="#231f20"/><path d="M185.15,169.07H131.29a.51.51,0,0,1-.5-.5V114a26.4,26.4,0,0,1,26.39-26.39h2.3a26.42,26.42,0,0,1,24.44,17,22.83,22.83,0,0,1,1,3h0v0a1.77,1.77,0,0,1,.08.4,25.14,25.14,0,0,1,.69,5.93v54.54A.5.5,0,0,1,185.15,169.07Zm-53.36-1h52.86V114a24.8,24.8,0,0,0-.67-5.77,1.16,1.16,0,0,0,0-.24l0-.11h0A24.71,24.71,0,0,0,183,105a25.44,25.44,0,0,0-23.52-16.33h-2.29A25.35,25.35,0,0,0,131.79,114Z" fill="#231f20"/><path d="M131.3,168.56h53.85a0,0,0,0,1,0,0v47.72a24.54,24.54,0,0,1-24.54,24.54h-4.78a24.54,24.54,0,0,1-24.54-24.54V168.56A0,0,0,0,1,131.3,168.56Z" fill="#fff"/><path d="M160.61,241.28h-4.77a25,25,0,0,1-25-25V168.56a.47.47,0,0,1,.46-.46h53.85a.47.47,0,0,1,.46.46v47.72A25,25,0,0,1,160.61,241.28ZM131.75,169v47.26a24.11,24.11,0,0,0,24.09,24.08h4.77a24.1,24.1,0,0,0,24.08-24.08V169Z" fill="#231f20"/><path d="M171.53,212.29H144.92a.5.5,0,0,1-.5-.5.5.5,0,0,1,.5-.5h26.61a.5.5,0,0,1,.5.5A.5.5,0,0,1,171.53,212.29Z" fill="#d1d3d4"/><circle cx="214.06" cy="123.45" r="5.15" fill="#fff"/><path d="M214.06,129.05a5.61,5.61,0,1,1,5.6-5.6A5.61,5.61,0,0,1,214.06,129.05Zm0-10.29a4.69,4.69,0,1,0,4.69,4.69A4.69,4.69,0,0,0,214.06,118.76Z" fill="#231f20"/><path d="M214.06,118.76a.47.47,0,0,1-.46-.46V54.94a.46.46,0,0,1,.46-.45.45.45,0,0,1,.45.45V118.3A.46.46,0,0,1,214.06,118.76Z" fill="#231f20"/><polygon points="232.99 59.73 214.06 68.25 214.06 54.94 232.99 54.94 232.99 59.73" fill="#fff"/><path d="M214.06,68.75a.5.5,0,0,1-.27-.08.48.48,0,0,1-.23-.42V54.94a.5.5,0,0,1,.5-.5H233a.51.51,0,0,1,.5.5v4.78a.51.51,0,0,1-.3.46L214.26,68.7A.46.46,0,0,1,214.06,68.75Zm.5-13.31v12l17.93-8.07v-4ZM233,59.72h0Z" fill="#231f20"/><rect x="203.13" y="168.56" width="21.7" height="5.18" fill="#fff"/><path d="M224.83,174.19h-21.7a.46.46,0,0,1-.46-.45v-5.18a.47.47,0,0,1,.46-.46h21.7a.47.47,0,0,1,.46.46v5.18A.46.46,0,0,1,224.83,174.19Zm-21.24-.91h20.78V169H203.59Z" fill="#231f20"/><polyline points="206.62 246.23 206.62 173.74 219.68 173.74 219.68 246.23" fill="#fff"/><path d="M219.68,246.69a.46.46,0,0,1-.45-.46v-72H207.07v72a.46.46,0,1,1-.91,0V173.74a.46.46,0,0,1,.46-.46h13.06a.46.46,0,0,1,.46.46v72.49A.46.46,0,0,1,219.68,246.69Z" fill="#231f20"/><polygon points="206.62 185.06 219.68 194.67 219.68 173.74 206.62 173.74 206.62 185.06" fill="#231f20"/><path d="M219.68,195.17a.5.5,0,0,1-.29-.09l-13.07-9.61a.51.51,0,0,1-.2-.4V173.74a.5.5,0,0,1,.5-.5h13.06a.5.5,0,0,1,.5.5v20.93a.49.49,0,0,1-.27.45A.46.46,0,0,1,219.68,195.17Zm-12.56-10.36,12.06,8.88V174.24H207.12Z" fill="#231f20"/><path d="M107.42,146.77s0,12.56-12.39,14.8c0,0,11.19,1,13.43,12.56,0,0,2.06-11.87,11.35-14.28C119.81,159.85,108.11,161.57,107.42,146.77Z" fill="#d1d3d4"/><path d="M88.28,113.43s0,6.85-6.76,8.07a8.5,8.5,0,0,1,7.32,6.85S90,121.88,95,120.56C95,120.56,88.65,121.5,88.28,113.43Z" fill="#d1d3d4"/><path d="M123.75,80.68s0,6.85-6.75,8.07a8.52,8.52,0,0,1,7.32,6.85s1.12-6.47,6.19-7.78C130.51,87.82,124.13,88.75,123.75,80.68Z" fill="#d1d3d4"/><path d="M168.8,139.31s0,6.85-6.75,8.07a8.5,8.5,0,0,1,7.32,6.85s1.12-6.47,6.19-7.79C175.56,146.44,169.18,147.38,168.8,139.31Z" fill="#d1d3d4"/><path d="M151.47,109.54s0,8-7.94,9.48a10,10,0,0,1,8.6,8s1.32-7.6,7.27-9.15C159.4,117.91,151.91,119,151.47,109.54Z" fill="#d1d3d4"/><path d="M267.91,94.06h-33a.47.47,0,0,1-.46-.46.46.46,0,0,1,.46-.45h33a.45.45,0,0,1,.45.45A.46.46,0,0,1,267.91,94.06Z" fill="#fff"/><path d="M228.58,94.06h-3.83a.46.46,0,0,1-.46-.46.45.45,0,0,1,.46-.45h3.83a.45.45,0,0,1,.46.45A.46.46,0,0,1,228.58,94.06Z" fill="#fff"/></g></svg>